<svg height="44" width="69" xmlns="http://www.w3.org/2000/svg" preserveAspectRatio="none" viewBox="0 0 69 44"><g fill="none" fill-rule="evenodd"><path d="m.5.5h68v42.983h-68z" fill="#fff" stroke="#ebebeb"/><g fill-rule="nonzero"><path d="m1 1h67v41.983h-67z" fill="#ffb3c7"/><path d="m59.013 24.802a1.42 1.42 0 0 0 -1.429 1.412c0 .779.64 1.41 1.429 1.41a1.42 1.42 0 0 0 1.428-1.41c0-.78-.64-1.412-1.428-1.412zm-4.7-1.09c0-1.068-.923-1.933-2.062-1.933s-2.062.865-2.062 1.932.923 1.932 2.062 1.932 2.062-.865 2.062-1.932zm.008-3.756h2.276v7.51h-2.277v-.48a4.024 4.024 0 0 1 -2.256.688c-2.216 0-4.011-1.774-4.011-3.963 0-2.188 1.795-3.963 4.01-3.963.838 0 1.614.255 2.257.688v-.48zm-18.214.978v-.978h-2.33v7.51h2.335v-3.506c0-1.183 1.298-1.82 2.199-1.82l.027.002v-2.186c-.925 0-1.775.391-2.231.978zm-5.804 2.777c0-1.067-.924-1.932-2.063-1.932-1.138 0-2.062.865-2.062 1.932s.924 1.932 2.062 1.932c1.14 0 2.063-.865 2.063-1.932zm.007-3.755h2.276v7.51h-2.276v-.48a4.024 4.024 0 0 1 -2.256.688c-2.215 0-4.01-1.774-4.01-3.963 0-2.188 1.795-3.963 4.01-3.963.837 0 1.613.255 2.256.688zm13.7-.202c-.91 0-1.77.279-2.345 1.048v-.846h-2.266v7.51h2.293v-3.947c0-1.142.776-1.7 1.709-1.7 1 0 1.575.59 1.575 1.685v3.962h2.273v-4.776c0-1.748-1.406-2.936-3.24-2.936zm-23.282 7.712h2.382v-10.857h-2.382zm-10.464.003h2.522v-10.862h-2.522zm8.822-10.862c0 2.352-.927 4.54-2.58 6.165l3.487 4.697h-3.116l-3.789-5.105.978-.723c1.622-1.2 2.552-3.035 2.552-5.034z" fill="#231f20"/></g></g></svg>
