<svg xmlns="http://www.w3.org/2000/svg" xmlns:xlink="http://www.w3.org/1999/xlink" width="277.257" height="36.5" viewBox="0 0 277.257 36.5">
  <defs>
    <linearGradient id="linear-gradient" x1="0.5" y1="0.006" x2="0.5" y2="1.006" gradientUnits="objectBoundingBox">
      <stop offset="0" stop-color="#ce0039"/>
      <stop offset="1" stop-color="#e5295d"/>
    </linearGradient>
  </defs>
  <g id="logos" transform="translate(-6562.595 -850)">
    <g id="unipay_logo_dark" transform="translate(6713 850)">
      <g id="text" transform="translate(41.993 5.998)">
        <path id="Path_17580" data-name="Path 17580" d="M159.667,48.258a2.633,2.633,0,0,1-2.608-2.922,2.639,2.639,0,1,1,5.247,0A2.656,2.656,0,0,1,159.667,48.258Zm-.786,3.833a5.38,5.38,0,0,0,4.055-1.728v1.256h4.085V39.052h-4.085v1.256a5.38,5.38,0,0,0-4.055-1.728,6.247,6.247,0,0,0-6.535,6.6c0,4.054,2.419,6.913,6.535,6.913Z" transform="translate(-98.248 -33.051)" fill="#333"/>
        <path id="Path_17581" data-name="Path 17581" d="M139.9,48.258a2.633,2.633,0,0,0,2.608-2.922,2.639,2.639,0,1,0-5.247,0A2.656,2.656,0,0,0,139.9,48.258Zm.786,3.833a5.38,5.38,0,0,1-4.055-1.728v6.692h-4.083v-18h4.085v1.256a5.38,5.38,0,0,1,4.055-1.728,6.247,6.247,0,0,1,6.535,6.6c0,4.053-2.421,6.912-6.537,6.912Z" transform="translate(-93.598 -33.051)" fill="#333"/>
        <path id="Path_17579" data-name="Path 17579" d="M174.907,57.2h5.059l7.855-18h-5.09L179.9,46.423,177.512,39.2h-5.09l4.807,12.567Z" transform="translate(-102.962 -33.196)" fill="#333"/>
        <path id="Path_17582" data-name="Path 17582" d="M123.114,49.92h4.713V37.355h-4.713Zm2.641-13.683h-.568a2.424,2.424,0,0,1-2.424-2.424v-.035a2.424,2.424,0,0,1,2.424-2.424h.568a2.424,2.424,0,0,1,2.424,2.424v.035A2.424,2.424,0,0,1,125.755,36.237Z" transform="translate(-91.3 -31.354)" fill="#333"/>
        <path id="Path_17583" data-name="Path 17583" d="M102.446,51.62h4.713V44.614a1.969,1.969,0,0,1,2.009-2.2,1.947,1.947,0,0,1,1.979,2.2V51.62h4.744V44.142c0-3.673-2.136-5.561-5.059-5.561a5.3,5.3,0,0,0-4.3,1.791v-1.32h-4.085Z" transform="translate(-86.529 -33.051)" fill="#333"/>
        <path id="Union_2" data-name="Union 2" d="M88.339,52.242c-3.813-.01-6.694-1.907-6.694-6.1V39.2h4.744v6.951a1.952,1.952,0,0,0,1.98,2.206h.06a1.946,1.946,0,0,0,1.92-2.2V39.2h4.744v6.958c0,4.2-2.9,6.088-6.724,6.088Z" transform="translate(-81.645 -33.196)" fill="#333"/>
      </g>
      <g id="symbol">
        <circle id="Ellipse_202" data-name="Ellipse 202" cx="18" cy="18" r="18" fill="url(#linear-gradient)"/>
        <path id="Path_639" data-name="Path 639" d="M51.251,35.893l-2.13,10.06a2.854,2.854,0,0,1-3.083,2.522c-1.737,0-2.494-1.26-2.1-3.11l2.019-9.5H40.518L38.5,45.336c-.9,4.26,1.682,7.622,6.641,7.622,4.932,0,8.238-1.989,9.219-6.5l2.27-10.565Z" transform="translate(-29.479 -26.415)" fill="#fff"/>
      </g>
    </g>
    <path id="Path_21771" data-name="Path 21771" d="M36.4,42.178l-4.059,9.683H29.7l-2-7.728a1.06,1.06,0,0,0-.595-.85,10.481,10.481,0,0,0-2.471-.824l.059-.281h4.263a1.168,1.168,0,0,1,1.156.987l1.055,5.6,2.605-6.591ZM46.779,48.7c.011-2.555-3.533-2.7-3.509-3.839.008-.347.339-.717,1.062-.811a4.73,4.73,0,0,1,2.471.433l.439-2.054A6.753,6.753,0,0,0,44.9,42c-2.477,0-4.219,1.315-4.233,3.2-.016,1.394,1.245,2.172,2.192,2.636.977.474,1.3.779,1.3,1.2-.007.65-.779.937-1.5.949a5.235,5.235,0,0,1-2.573-.61L39.631,51.5a7.615,7.615,0,0,0,2.785.514c2.633,0,4.355-1.3,4.362-3.313m6.54,3.162h2.317L53.61,42.178H51.475a1.14,1.14,0,0,0-1.068.71l-3.759,8.974h2.632l.522-1.446h3.214Zm-2.8-3.433,1.319-3.637L52.6,48.43ZM39.983,42.178l-2.071,9.683H35.406l2.071-9.683Z" transform="translate(6537.962 820.631)" fill="#1a1f71"/>
    <g id="Layer_2" data-name="Layer 2" transform="translate(6602.809 859.395)">
      <g id="Layer_1" data-name="Layer 1" transform="translate(0 0)">
        <path id="Path_17549" data-name="Path 17549" d="M392.238,75.7v-1.11a.66.66,0,0,0-.7-.7.686.686,0,0,0-.622.315.651.651,0,0,0-.585-.315.586.586,0,0,0-.518.263V73.93h-.386V75.7h.389v-.982a.414.414,0,0,1,.434-.471c.263,0,.386.167.386.467V75.7h.387v-.982a.418.418,0,0,1,.434-.471c.256,0,.389.167.389.467V75.7ZM398,73.932h-.63v-.537h-.389v.537h-.36v.352h.36v.807c0,.411.159.656.615.656a.906.906,0,0,0,.482-.137l-.111-.33a.712.712,0,0,1-.341.1c-.192,0-.256-.118-.256-.3v-.8H398Zm3.288-.044a.523.523,0,0,0-.467.26v-.215h-.382V75.7h.386V74.71c0-.3.126-.456.378-.456a.628.628,0,0,1,.241.044l.118-.363A.824.824,0,0,0,401.287,73.888Zm-4.971.185a1.325,1.325,0,0,0-.723-.185c-.448,0-.74.215-.74.567,0,.289.215.467.611.523l.181.026c.211.03.312.085.312.185,0,.137-.141.215-.4.215a.945.945,0,0,1-.592-.185l-.175.3a1.278,1.278,0,0,0,.767.23c.511,0,.808-.241.808-.578,0-.312-.234-.474-.619-.53l-.181-.026c-.167-.022-.3-.056-.3-.174s.126-.207.337-.207a1.142,1.142,0,0,1,.552.152Zm10.326-.185a.523.523,0,0,0-.467.26v-.215h-.382V75.7h.386V74.71c0-.3.126-.456.378-.456a.629.629,0,0,1,.241.044l.118-.363A.824.824,0,0,0,406.641,73.888Zm-4.965.93a.9.9,0,0,0,.945.93.928.928,0,0,0,.637-.212l-.185-.312a.779.779,0,0,1-.463.159.568.568,0,0,1,0-1.134.779.779,0,0,1,.463.159l.185-.312a.928.928,0,0,0-.637-.212.9.9,0,0,0-.945.93Zm3.61,0V73.93H404.9v.215a.672.672,0,0,0-.56-.26.931.931,0,0,0,0,1.861.672.672,0,0,0,.56-.26V75.7h.386Zm-1.434,0a.536.536,0,1,1,.537.567A.531.531,0,0,1,403.852,74.818Zm-4.652-.93a.931.931,0,0,0,.026,1.861,1.077,1.077,0,0,0,.727-.249l-.189-.286a.844.844,0,0,1-.518.185.492.492,0,0,1-.53-.434h1.316c0-.048.007-.1.007-.148a.848.848,0,0,0-.841-.93Zm-.007.345a.44.44,0,0,1,.449.43h-.918a.456.456,0,0,1,.471-.43Zm9.669.585v-1.6h-.386v.927a.672.672,0,0,0-.56-.26.931.931,0,0,0,0,1.861.672.672,0,0,0,.56-.26V75.7h.386Zm.451.722a.113.113,0,0,1,.044.009.116.116,0,0,1,.036.024.112.112,0,0,1,.024.036.11.11,0,0,1,0,.087.113.113,0,0,1-.024.036.118.118,0,0,1-.036.024.111.111,0,0,1-.044.009.115.115,0,0,1-.107-.069.111.111,0,0,1,0-.087.113.113,0,0,1,.061-.06.117.117,0,0,1,.047-.009Zm0,.2a.084.084,0,0,0,.034-.007.09.09,0,0,0,.027-.019.088.088,0,0,0-.027-.143.085.085,0,0,0-.034-.007.087.087,0,1,0,0,.175Zm.007-.141a.047.047,0,0,1,.031.009.03.03,0,0,1,.011.024.028.028,0,0,1-.009.021.042.042,0,0,1-.024.01l.034.039h-.027l-.032-.039h-.01V75.7h-.022v-.1Zm-.026.019v.028h.026a.025.025,0,0,0,.014,0,.013.013,0,0,0,0-.021.025.025,0,0,0-.014,0Zm-1.864-.8a.536.536,0,1,1,.537.567A.531.531,0,0,1,407.429,74.818Zm-13.018,0V73.93h-.386v.215a.672.672,0,0,0-.557-.258.931.931,0,0,0,0,1.861.672.672,0,0,0,.56-.26V75.7h.386Zm-1.434,0a.536.536,0,1,1,.537.567A.531.531,0,0,1,392.976,74.818Z" transform="translate(-389.43 -59.131)" fill="#231f20"/>
        <g id="_Group_" data-name="&lt;Group&gt;">
          <rect id="Rectangle_2097" data-name="Rectangle 2097" width="5.407" height="9.717" transform="translate(7.294 1.32)" fill="#ff5f00"/>
          <path id="_Path_" data-name="&lt;Path&gt;" d="M90.494,47.654a6.169,6.169,0,0,1,2.36-4.858,6.179,6.179,0,1,0,0,9.717A6.169,6.169,0,0,1,90.494,47.654Z" transform="translate(-82.856 -41.473)" fill="#eb001b"/>
          <path id="Path_17550" data-name="Path 17550" d="M219.969,47.626a6.18,6.18,0,0,1-10,4.858,6.179,6.179,0,0,0,0-9.717,6.179,6.179,0,0,1,10,4.859Z" transform="translate(-199.972 -41.445)" fill="#f79e1b"/>
          <path id="Path_17551" data-name="Path 17551" d="M328.137,165.864v-.2h.081v-.04h-.2v.041h.081v.2Zm.4,0v-.24h-.053l-.072.172-.072-.172h-.063v.24h.036v-.18l.067.156h.046l.067-.156v.182Z" transform="translate(-308.734 -155.856)" fill="#f79e1b"/>
        </g>
      </g>
    </g>
    <g id="Amex_Logo" data-name="Amex Logo" transform="translate(6632.152 861.552)">
      <g id="Amex_Logo-2" data-name="Amex Logo" transform="translate(0 0)">
        <g id="Group_177" data-name="Group 177" transform="translate(0.337 0.388)">
          <path id="Path_1068" data-name="Path 1068" d="M0,0H5.559l.253.148L6.027,0H29.672V4.467h-14.6V3.573h-.57v.894H11.851v-1l-1.9.3v.708H6.029l-.259-.219-.279.219H0Z" transform="translate(8.934 7.977)" fill="none"/>
          <path id="Path_1067" data-name="Path 1067" d="M2.452,0H5l.888,2.523L5.734,0H8.666l.687,1.318L9.908,0H29.995l.325.435V0h3.087l.286.392L33.75,0h2.622V5.424H33.565l-.519-.714-.095.714H29.617l-.569-.776h-.99l-.292.776H24.46L24.1,5.243,24,5.424H19.638V3.981h-.4l-.068,1.443H10.619V4.907H7.987v.517H4.546l-.285-.766H3.267L2.7,5.424H0Z" fill="none"/>
        </g>
        <path id="Path_1063" data-name="Path 1063" d="M13.3,24.533l-.715-1.744-.711,1.744m17.187-.694a.969.969,0,0,1-.517.09h-1.27v-.971h1.287a1.073,1.073,0,0,1,.5.079.4.4,0,0,1,.219.387.45.45,0,0,1-.215.416Zm9.061.694L37.4,22.79l-.72,1.744ZM21.238,26.421H20.163l0-3.428-1.516,3.426h-.918l-1.52-3.426v3.428H14.079l-.4-.976H11.5l-.406.976H9.96l1.872-4.374h1.554l1.778,4.141v-4.14H16.87l1.368,2.967L19.5,22.048h1.741v4.374Zm4.271,0H22.014V22.048h3.492v.911H23.06v.784h2.388v.9H23.06v.874h2.447Zm4.922-3.2a1.232,1.232,0,0,1-.737,1.166,1.212,1.212,0,0,1,.517.368,1.258,1.258,0,0,1,.173.8v.859H29.333l0-.552a1.313,1.313,0,0,0-.165-.852,1.022,1.022,0,0,0-.762-.187H27.277v1.591H26.231V22.048h2.4a2.463,2.463,0,0,1,1.266.209,1.02,1.02,0,0,1,.532.968Zm1.673,3.2H31.038V22.048H32.1Zm12.376,0H43l-1.981-3.283v3.283H38.887l-.407-.976H36.309l-.395.976h-1.22a1.853,1.853,0,0,1-2.075-2.154,2.327,2.327,0,0,1,.564-1.711,2.122,2.122,0,0,1,1.587-.51h1.012v.937h-.99a1.007,1.007,0,0,0-.8.259,1.444,1.444,0,0,0-.3.991,1.517,1.517,0,0,0,.287,1.027,1.008,1.008,0,0,0,.729.225h.47l1.472-3.438h1.566l1.769,4.136V22.048h1.592l1.836,3.046V22.048H44.48v4.373ZM9.947,27.28h1.786l.4-.971h.9l.4.971h3.515v-.743l.314.746h1.825l.314-.757v.751h8.736l0-1.595h.169c.119,0,.15.015.15.21v1.384h4.518V26.9a3.579,3.579,0,0,0,1.677.372h1.9l.407-.971h.9l.4.971h3.663v-.923l.555.923h2.935v-6.1h-2.9v.72l-.407-.72H39.122v.72l-.375-.72H34.72a3.615,3.615,0,0,0-1.745.357v-.357H30.2v.357a1.722,1.722,0,0,0-1.181-.357H18.868l-.681,1.576-.7-1.576h-3.2v.72l-.352-.72H11.213L8.5,27.28Z" transform="translate(-8.5 -21.175)" fill="#2c97e9"/>
        <path id="Path_1064" data-name="Path 1064" d="M24.6,32.984l1.144,1.276L24.55,35.542H21.979v-.87h2.3v-.893h-2.3v-.8Zm6.5,0H29.735V34.1h1.351c.4,0,.651-.2.651-.578S31.477,32.984,31.1,32.984Zm-2.4,3.072v-3.5l-1.605,1.726Zm22.234-.982a2.165,2.165,0,0,1-.375,1.316,1.919,1.919,0,0,1-.759.637v0a2.278,2.278,0,0,1-.323.124,3.736,3.736,0,0,1-1.138.158H45.559v-.39a2.436,2.436,0,0,1-1.426.39H35.588V35.9c0-.173-.018-.181-.19-.181h-.136v1.591H32.45V35.662a3.551,3.551,0,0,1-1.456.215h-.338v1.436H27.249l-.836-.949-.889.949h-5.53V31.208h5.635l.808.934.863-.934h3.772a2.385,2.385,0,0,1,1.473.357v-.357h3.371a2.719,2.719,0,0,1,1.41.357v-.357H42.44v.357a1.981,1.981,0,0,1,1.249-.357H46.55v.357a2.177,2.177,0,0,1,1.308-.357h2.762v2.655a2.2,2.2,0,0,1,.306,1.211ZM32.861,33.52c0-1.211-.932-1.441-1.762-1.441H27.759l-1.331,1.434-1.286-1.434h-4.2v4.376H25.08l1.338-1.449,1.287,1.449h2.032V34.987h1.3C31.954,34.987,32.861,34.735,32.861,33.52Zm3.959.9a1.226,1.226,0,0,0,.742-1.164,1.024,1.024,0,0,0-.537-.971,2.588,2.588,0,0,0-1.258-.206H33.352v4.375H34.4v-1.6H35.52a1.014,1.014,0,0,1,.767.194c.194.2.169.593.169.856v.547h1.051v-.867a1.276,1.276,0,0,0-.173-.8,1.136,1.136,0,0,0-.513-.367Zm4.81-2.342h-3.49v4.375H41.63v-.908l-2.448,0v-.871H41.57v-.892H39.182v-.8H41.63Zm4.305,2.995a1.217,1.217,0,0,0-.313-.927,1.687,1.687,0,0,0-1.194-.352l-.563-.015a1.2,1.2,0,0,1-.407-.05.366.366,0,0,1-.075-.641.707.707,0,0,1,.419-.079H45.72v-.931H43.628c-1.1,0-1.5.669-1.5,1.3,0,1.385,1.224,1.321,2.2,1.351a.55.55,0,0,1,.375.1.375.375,0,0,1,.128.289.388.388,0,0,1-.124.285.614.614,0,0,1-.427.108H42.26v.943H44.3c1.051,0,1.638-.44,1.638-1.381ZM49.793,35.895Zm.221-.821a1.283,1.283,0,0,0-.235-.836l-.012-.015c-.01-.014-.023-.026-.034-.039a.32.32,0,0,0-.036-.036.926.926,0,0,0-.309-.2,2.476,2.476,0,0,0-.88-.15l-.563-.015a1.2,1.2,0,0,1-.407-.05.335.335,0,0,1-.225-.325.345.345,0,0,1,.113-.278.33.33,0,0,1,.044-.036.416.416,0,0,1,.158-.061l.022-.005a1.612,1.612,0,0,1,.244-.013h1.9v-.931H47.71c-1.1,0-1.5.669-1.5,1.3,0,1,.642,1.246,1.37,1.316h0c.069.007.138.012.209.016h0l.2.01H48l.188.006.225.007a.575.575,0,0,1,.34.075l.029.02c.008.008.016.018.024.025a.339.339,0,0,1,.089.158.4.4,0,0,1,.015.1.388.388,0,0,1-.124.285l-.031.022a.659.659,0,0,1-.392.086H46.355v.943h2.026a2.018,2.018,0,0,0,.215-.008l.05,0c.062-.005.122-.012.181-.021l.025,0a1.6,1.6,0,0,0,.7-.274l.01-.007a1.044,1.044,0,0,0,.225-.23,1.407,1.407,0,0,0,.227-.833ZM36.189,33.063a1.03,1.03,0,0,0-.5-.079H34.4v.982h1.27a1,1,0,0,0,.516-.09.472.472,0,0,0,.217-.42A.417.417,0,0,0,36.189,33.063Z" transform="translate(-11.368 -23.678)" fill="#2c97e9"/>
      </g>
    </g>
    <line id="Line_2" data-name="Line 2" y2="36" transform="translate(6692.5 850.5)" fill="none" stroke="#ccc" stroke-width="1"/>
  </g>
</svg>
